<svg  viewBox="0 0 36 34" fill="none" xmlns="http://www.w3.org/2000/svg">
<path d="M26.9621 8.5C28.5729 8.5 29.8787 7.26878 29.8787 5.75C29.8787 4.23122 28.5729 3 26.9621 3C25.3512 3 24.0454 4.23122 24.0454 5.75C24.0454 7.26878 25.3512 8.5 26.9621 8.5Z" fill="#747474"/>
<path d="M26.7229 16.7693L20.3864 17.7661L25.1843 12.1108C25.3106 11.9618 25.4027 11.7898 25.4547 11.6055C25.5067 11.4212 25.5174 11.2288 25.4863 11.0404C25.4552 10.852 25.3828 10.6718 25.2738 10.5111C25.1649 10.3505 25.0217 10.213 24.8533 10.1074L16.1033 4.60738C15.8229 4.43074 15.4861 4.35132 15.1505 4.38267C14.8148 4.41401 14.5011 4.55418 14.2629 4.77925L8.42956 10.2793L10.4916 12.2235L15.4791 7.52101L19.2475 9.89013L15.3377 14.4991C14.0131 14.0394 12.5891 13.8932 11.1906 14.0735C9.79209 14.2538 8.46193 14.755 7.31685 15.5331L9.43289 17.5283C10.3231 17.0246 11.3406 16.7558 12.3787 16.75C15.5958 16.75 18.2121 19.2168 18.2121 22.25C18.2121 23.2661 17.8971 24.2094 17.3866 25.0275L19.5027 27.0226C20.56 25.6309 21.1286 23.962 21.1287 22.25C21.1287 21.6381 21.0514 21.0428 20.9173 20.4694L25.5037 19.7489V27.75H28.4204V18.125C28.4208 17.9253 28.3749 17.7278 28.286 17.5465C28.1971 17.3652 28.0673 17.2044 27.9057 17.0753C27.744 16.9462 27.5545 16.8519 27.3502 16.7991C27.1459 16.7462 26.9318 16.736 26.7229 16.7693ZM12.3787 27.75C9.16164 27.75 6.54539 25.2833 6.54539 22.25C6.54539 21.2339 6.86039 20.2906 7.37081 19.4725L5.25476 17.4774C4.19742 18.8691 3.62881 20.5381 3.62872 22.25C3.62872 26.7999 7.5531 30.5 12.3787 30.5C14.2658 30.5 16.01 29.928 17.4406 28.9669L15.3246 26.9718C14.4343 27.4754 13.4169 27.7442 12.3787 27.75Z" fill="#747474"/>
</svg>
