<svg width="36" height="42" viewBox="0 0 36 42" fill="none" xmlns="http://www.w3.org/2000/svg">
<path d="M13.44 16.3353C13.9619 16.3353 14.385 15.9122 14.385 15.3903C14.385 14.8684 13.9619 14.4453 13.44 14.4453C12.9181 14.4453 12.495 14.8684 12.495 15.3903C12.495 15.9122 12.9181 16.3353 13.44 16.3353Z" fill="#747474"/>
<path d="M14.85 13.7103C15.1068 13.7103 15.315 13.5021 15.315 13.2453C15.315 12.9885 15.1068 12.7803 14.85 12.7803C14.5932 12.7803 14.385 12.9885 14.385 13.2453C14.385 13.5021 14.5932 13.7103 14.85 13.7103Z" fill="#747474"/>
<path fill-rule="evenodd" clip-rule="evenodd" d="M28.725 13.9197V13.7847C28.7324 13.6498 28.7324 13.5146 28.725 13.3797V12.8847C28.6418 12.7648 28.5667 12.6395 28.5 12.5097V12.1047C28.5 11.9697 28.5 11.8497 28.38 11.7297C28.331 11.6232 28.2909 11.5128 28.26 11.3997V11.3247C28.201 11.2138 28.1509 11.0984 28.11 10.9797C28.0661 10.8768 28.016 10.7766 27.96 10.6797L27.78 10.3347V10.1997C27.3593 9.51973 26.8554 8.89491 26.28 8.33969H22.155L23.13 4.67969C23.2042 4.42401 23.3768 4.20822 23.61 4.07969C23.73 4.02449 23.8604 3.99591 23.9925 3.99591C24.1245 3.99591 24.255 4.02449 24.375 4.07969L27.18 5.14469L27.855 3.40469L25.05 1.91969C24.6809 1.77802 24.2861 1.71554 23.8913 1.73632C23.4965 1.7571 23.1104 1.86067 22.7582 2.04031C22.406 2.21995 22.0955 2.47164 21.8469 2.77905C21.5982 3.08646 21.417 3.44271 21.315 3.82469L20.22 7.99469H16.965C16.8548 6.7974 16.2924 5.68714 15.3922 4.89008C14.492 4.09301 13.3218 3.6691 12.12 3.70469C10.8821 3.66408 9.6784 4.11423 8.77092 4.95708C7.86345 5.79994 7.32577 6.96722 7.275 8.20469C7.27393 9.11982 7.55189 10.0135 8.07181 10.7666C8.59173 11.5197 9.3289 12.0964 10.185 12.4197C10.1921 12.5446 10.1921 12.6698 10.185 12.7947V13.2597C10.1776 13.3946 10.1776 13.5298 10.185 13.6647V14.3397C10.2785 16.7006 11.2875 18.9323 12.9984 20.562C14.7092 22.1916 16.9873 23.091 19.35 23.0697C21.7561 23.1466 24.0945 22.2659 25.852 20.6208C27.6096 18.9757 28.6428 16.7006 28.725 14.2947V13.9197ZM19.35 21.1947C17.4411 21.2719 15.5794 20.5889 14.1734 19.2953C12.7674 18.0018 11.9318 16.2034 11.85 14.2947C11.8615 12.655 12.4816 11.0781 13.59 9.86969H25.125C26.2467 11.0986 26.8628 12.7059 26.85 14.3697C26.749 16.2652 25.9051 18.0445 24.5012 19.322C23.0973 20.5995 21.2466 21.2724 19.35 21.1947ZM9.15 8.26469C9.16914 7.89089 9.26211 7.52457 9.42355 7.18688C9.585 6.84919 9.81171 6.54681 10.0906 6.29719C10.3695 6.04757 10.6951 5.85565 11.0486 5.7325C11.402 5.60935 11.7764 5.55742 12.15 5.57969C12.8592 5.54426 13.5567 5.77071 14.1098 6.21598C14.663 6.66125 15.0331 7.29429 15.15 7.99469H12.795C12.2155 8.54611 11.7111 9.17149 11.295 9.85469C11.2979 9.89464 11.2979 9.93474 11.295 9.97469L11.115 10.3197C11.0688 10.4068 11.0287 10.497 10.995 10.5897C10.494 10.4247 10.0522 10.1166 9.72436 9.70346C9.39648 9.29027 9.1968 8.79009 9.15 8.26469Z" fill="#747474"/>
<path d="M3.90101 28.7419C4.70767 28.7419 5.41534 28.8996 6.02401 29.2149C6.64001 29.5303 7.11301 29.9813 7.44301 30.5679C7.78034 31.1473 7.94901 31.8219 7.94901 32.5919C7.94901 33.3619 7.78034 34.0366 7.44301 34.6159C7.11301 35.1879 6.64001 35.6316 6.02401 35.9469C5.41534 36.2623 4.70767 36.4199 3.90101 36.4199H1.21701V28.7419H3.90101ZM3.84601 35.1109C4.65267 35.1109 5.27601 34.8909 5.71601 34.4509C6.15601 34.0109 6.37601 33.3913 6.37601 32.5919C6.37601 31.7926 6.15601 31.1693 5.71601 30.7219C5.27601 30.2673 4.65267 30.0399 3.84601 30.0399H2.75701V35.1109H3.84601ZM10.6418 31.2719C10.8398 30.9493 11.0964 30.6963 11.4118 30.5129C11.7344 30.3296 12.1011 30.2379 12.5118 30.2379V31.8549H12.1048C11.6208 31.8549 11.2541 31.9686 11.0048 32.1959C10.7628 32.4233 10.6418 32.8193 10.6418 33.3839V36.4199H9.10177V30.3259H10.6418V31.2719ZM14.33 29.5999C14.0587 29.5999 13.8314 29.5156 13.648 29.3469C13.472 29.1709 13.384 28.9546 13.384 28.6979C13.384 28.4413 13.472 28.2286 13.648 28.0599C13.8314 27.8839 14.0587 27.7959 14.33 27.7959C14.6014 27.7959 14.825 27.8839 15.001 28.0599C15.1844 28.2286 15.276 28.4413 15.276 28.6979C15.276 28.9546 15.1844 29.1709 15.001 29.3469C14.825 29.5156 14.6014 29.5999 14.33 29.5999ZM15.089 30.3259V36.4199H13.549V30.3259H15.089ZM19.9876 30.2379C20.7136 30.2379 21.3002 30.4689 21.7476 30.9309C22.1949 31.3856 22.4186 32.0236 22.4186 32.8449V36.4199H20.8786V33.0539C20.8786 32.5699 20.7576 32.1996 20.5156 31.9429C20.2736 31.6789 19.9436 31.5469 19.5256 31.5469C19.1002 31.5469 18.7629 31.6789 18.5136 31.9429C18.2716 32.1996 18.1506 32.5699 18.1506 33.0539V36.4199H16.6106V30.3259H18.1506V31.0849C18.3559 30.8209 18.6162 30.6156 18.9316 30.4689C19.2542 30.3149 19.6062 30.2379 19.9876 30.2379ZM27.491 36.4199L25.423 33.8239V36.4199H23.883V28.2799H25.423V32.9109L27.469 30.3259H29.471L26.787 33.3839L29.493 36.4199H27.491ZM32.6389 36.5189C32.1402 36.5189 31.6929 36.4309 31.2969 36.2549C30.9009 36.0716 30.5855 35.8259 30.3509 35.5179C30.1235 35.2099 29.9989 34.8689 29.9769 34.4949H31.5279C31.5572 34.7296 31.6709 34.9239 31.8689 35.0779C32.0742 35.2319 32.3272 35.3089 32.6279 35.3089C32.9212 35.3089 33.1485 35.2503 33.3099 35.1329C33.4785 35.0156 33.5629 34.8653 33.5629 34.6819C33.5629 34.4839 33.4602 34.3373 33.2549 34.2419C33.0569 34.1393 32.7379 34.0293 32.2979 33.9119C31.8432 33.8019 31.4692 33.6883 31.1759 33.5709C30.8899 33.4536 30.6405 33.2739 30.4279 33.0319C30.2225 32.7899 30.1199 32.4636 30.1199 32.0529C30.1199 31.7156 30.2152 31.4076 30.4059 31.1289C30.6039 30.8503 30.8825 30.6303 31.2419 30.4689C31.6085 30.3076 32.0375 30.2269 32.5289 30.2269C33.2549 30.2269 33.8342 30.4103 34.2669 30.7769C34.6995 31.1363 34.9379 31.6239 34.9819 32.2399H33.5079C33.4859 31.9979 33.3832 31.8073 33.1999 31.6679C33.0239 31.5213 32.7855 31.4479 32.4849 31.4479C32.2062 31.4479 31.9899 31.4993 31.8359 31.6019C31.6892 31.7046 31.6159 31.8476 31.6159 32.0309C31.6159 32.2363 31.7185 32.3939 31.9239 32.5039C32.1292 32.6066 32.4482 32.7129 32.8809 32.8229C33.3209 32.9329 33.6839 33.0466 33.9699 33.1639C34.2559 33.2813 34.5015 33.4646 34.7069 33.7139C34.9195 33.9559 35.0295 34.2786 35.0369 34.6819C35.0369 35.0339 34.9379 35.3493 34.7399 35.6279C34.5492 35.9066 34.2705 36.1266 33.9039 36.2879C33.5445 36.4419 33.1229 36.5189 32.6389 36.5189Z" fill="#747474"/>
</svg>
