<svg width="28" height="42" viewBox="0 0 28 42" fill="none" xmlns="http://www.w3.org/2000/svg">
<path d="M4.99999 8.68352V8.67002C4.99997 7.33661 5.39488 6.03306 6.13489 4.92384C6.8749 3.81462 7.92686 2.94942 9.15805 2.4374C10.3892 1.92538 11.7445 1.78948 13.0528 2.04685C14.3612 2.30422 15.564 2.94332 16.5095 3.88352C17.2534 3.51634 18.0844 3.36196 18.9106 3.43743C19.7367 3.51291 20.526 3.8153 21.191 4.31121C21.8561 4.80711 22.3712 5.47722 22.6793 6.2475C22.9874 7.01778 23.0766 7.85824 22.937 8.67602C23.1422 8.69507 23.3414 8.75622 23.5219 8.85566C23.7025 8.95509 23.8606 9.09068 23.9865 9.25395C24.1123 9.41722 24.2031 9.60468 24.2533 9.80462C24.3034 10.0046 24.3119 10.2127 24.278 10.416C23.6 14.4945 21.923 17.076 19.25 18.162V19.17C19.25 19.7668 19.0129 20.3391 18.591 20.761C18.169 21.183 17.5967 21.42 17 21.42H11C10.4033 21.42 9.83096 21.183 9.409 20.761C8.98704 20.3391 8.74999 19.7668 8.74999 19.17V18.162C6.07699 17.076 4.39999 14.4945 3.72199 10.416C3.68927 10.2181 3.69659 10.0156 3.74351 9.82055C3.79043 9.62549 3.876 9.44183 3.99516 9.28043C4.11432 9.11903 4.26465 8.98318 4.43724 8.88091C4.60984 8.77864 4.8012 8.71203 4.99999 8.68502V8.68352ZM6.49999 8.67002H7.99999C7.99999 7.67546 8.39508 6.72163 9.09834 6.01837C9.8016 5.31511 10.7554 4.92002 11.75 4.92002C12.7446 4.92002 13.6984 5.31511 14.4016 6.01837C15.1049 6.72163 15.5 7.67546 15.5 8.67002H17C17 7.27764 16.4469 5.94228 15.4623 4.95771C14.4777 3.97314 13.1424 3.42002 11.75 3.42002C10.3576 3.42002 9.02225 3.97314 8.03768 4.95771C7.05311 5.94228 6.49999 7.27764 6.49999 8.67002ZM9.49999 8.67002H14C14 8.07328 13.7629 7.50099 13.341 7.07903C12.919 6.65707 12.3467 6.42002 11.75 6.42002C11.1533 6.42002 10.581 6.65707 10.159 7.07903C9.73704 7.50099 9.49999 8.07328 9.49999 8.67002ZM19.799 8.67002H21.4055C21.5187 8.22673 21.5293 7.76344 21.4364 7.31545C21.3434 6.86746 21.1495 6.44659 20.8692 6.08492C20.589 5.72325 20.2299 5.43032 19.8193 5.22844C19.4088 5.02657 18.9575 4.92108 18.5 4.92002C18.14 4.92002 17.798 4.98302 17.48 5.09852C17.7455 5.52452 17.9645 5.98352 18.1325 6.46502C18.4182 6.39416 18.7184 6.40875 18.9959 6.50698C19.2734 6.60521 19.5159 6.78276 19.6934 7.01759C19.8709 7.25242 19.9755 7.5342 19.9942 7.82795C20.013 8.12171 19.9451 8.41451 19.799 8.67002ZM17.75 18.42H10.25V19.17C10.25 19.3689 10.329 19.5597 10.4697 19.7004C10.6103 19.841 10.8011 19.92 11 19.92H17C17.1989 19.92 17.3897 19.841 17.5303 19.7004C17.671 19.5597 17.75 19.3689 17.75 19.17V18.42ZM9.72199 16.92H18.278C20.657 16.155 22.163 13.992 22.799 10.17H5.20099C5.83699 13.992 7.34299 16.155 9.72199 16.92Z" fill="#747474"/>
<path d="M5.84131 28.7419V29.9849H2.64031V31.9539H5.09331V33.1749H2.64031V36.4199H1.10031V28.7419H5.84131ZM9.63932 36.5189C9.05265 36.5189 8.52465 36.3906 8.05532 36.1339C7.58598 35.8699 7.21565 35.4996 6.94432 35.0229C6.68032 34.5463 6.54832 33.9963 6.54832 33.3729C6.54832 32.7496 6.68398 32.1996 6.95532 31.7229C7.23398 31.2463 7.61165 30.8796 8.08832 30.6229C8.56498 30.3589 9.09665 30.2269 9.68332 30.2269C10.27 30.2269 10.8016 30.3589 11.2783 30.6229C11.755 30.8796 12.129 31.2463 12.4003 31.7229C12.679 32.1996 12.8183 32.7496 12.8183 33.3729C12.8183 33.9963 12.6753 34.5463 12.3893 35.0229C12.1106 35.4996 11.7293 35.8699 11.2453 36.1339C10.7687 36.3906 10.2333 36.5189 9.63932 36.5189ZM9.63932 35.1769C9.91798 35.1769 10.1783 35.1109 10.4203 34.9789C10.6696 34.8396 10.8676 34.6343 11.0143 34.3629C11.161 34.0916 11.2343 33.7616 11.2343 33.3729C11.2343 32.7936 11.0803 32.3499 10.7723 32.0419C10.4716 31.7266 10.1013 31.5689 9.66132 31.5689C9.22132 31.5689 8.85098 31.7266 8.55032 32.0419C8.25698 32.3499 8.11032 32.7936 8.11032 33.3729C8.11032 33.9523 8.25332 34.3996 8.53932 34.7149C8.83265 35.0229 9.19932 35.1769 9.63932 35.1769ZM16.654 36.5189C16.0673 36.5189 15.5393 36.3906 15.07 36.1339C14.6006 35.8699 14.2303 35.4996 13.959 35.0229C13.695 34.5463 13.563 33.9963 13.563 33.3729C13.563 32.7496 13.6986 32.1996 13.97 31.7229C14.2486 31.2463 14.6263 30.8796 15.103 30.6229C15.5796 30.3589 16.1113 30.2269 16.698 30.2269C17.2846 30.2269 17.8163 30.3589 18.293 30.6229C18.7696 30.8796 19.1436 31.2463 19.415 31.7229C19.6936 32.1996 19.833 32.7496 19.833 33.3729C19.833 33.9963 19.69 34.5463 19.404 35.0229C19.1253 35.4996 18.744 35.8699 18.26 36.1339C17.7833 36.3906 17.248 36.5189 16.654 36.5189ZM16.654 35.1769C16.9326 35.1769 17.193 35.1109 17.435 34.9789C17.6843 34.8396 17.8823 34.6343 18.029 34.3629C18.1756 34.0916 18.249 33.7616 18.249 33.3729C18.249 32.7936 18.095 32.3499 17.787 32.0419C17.4863 31.7266 17.116 31.5689 16.676 31.5689C16.236 31.5689 15.8656 31.7266 15.565 32.0419C15.2716 32.3499 15.125 32.7936 15.125 33.3729C15.125 33.9523 15.268 34.3996 15.554 34.7149C15.8473 35.0229 16.214 35.1769 16.654 35.1769ZM20.5666 33.3509C20.5666 32.7349 20.6876 32.1886 20.9296 31.7119C21.1789 31.2353 21.5163 30.8686 21.9416 30.6119C22.3669 30.3553 22.8399 30.2269 23.3606 30.2269C23.7566 30.2269 24.1343 30.3149 24.4936 30.4909C24.8529 30.6596 25.1389 30.8869 25.3516 31.1729V28.2799H26.9136V36.4199H25.3516V35.5179C25.1609 35.8186 24.8933 36.0606 24.5486 36.2439C24.2039 36.4273 23.8043 36.5189 23.3496 36.5189C22.8363 36.5189 22.3669 36.3869 21.9416 36.1229C21.5163 35.8589 21.1789 35.4886 20.9296 35.0119C20.6876 34.5279 20.5666 33.9743 20.5666 33.3509ZM25.3626 33.3729C25.3626 32.9989 25.2893 32.6799 25.1426 32.4159C24.9959 32.1446 24.7979 31.9393 24.5486 31.7999C24.2993 31.6533 24.0316 31.5799 23.7456 31.5799C23.4596 31.5799 23.1956 31.6496 22.9536 31.7889C22.7116 31.9283 22.5136 32.1336 22.3596 32.4049C22.2129 32.6689 22.1396 32.9843 22.1396 33.3509C22.1396 33.7176 22.2129 34.0403 22.3596 34.3189C22.5136 34.5903 22.7116 34.7993 22.9536 34.9459C23.2029 35.0926 23.4669 35.1659 23.7456 35.1659C24.0316 35.1659 24.2993 35.0963 24.5486 34.9569C24.7979 34.8103 24.9959 34.6049 25.1426 34.3409C25.2893 34.0696 25.3626 33.7469 25.3626 33.3729Z" fill="#747474"/>
</svg>
