<svg width="34" height="42" viewBox="0 0 34 42" fill="none" xmlns="http://www.w3.org/2000/svg">
<path d="M5.83498 17.7409V17.7909H5.88498H7.25458H7.30458V17.7409V7.0991V7.0491H7.25458H5.88498H5.83498V7.0991V17.7409ZM9.31103 20.0583V20.1083H9.36103H24.6376H24.6876V20.0583V8.94259C24.6876 7.77444 24.2779 6.77923 23.4595 5.95987L23.4594 5.95983C22.6401 5.14139 21.6449 4.73174 20.4767 4.73174H13.5232C12.365 4.73174 11.3726 5.14148 10.5488 5.95973C9.72397 6.77906 9.31103 7.77431 9.31103 8.94259V20.0583ZM26.6954 17.7395V17.7894L26.7453 17.7895L28.1149 17.7923L28.165 17.7924V17.7423V7.10184V7.05184H28.115H26.7454H26.6954V7.10184V17.7395ZM13.9471 13.1048V13.1548H13.9971H16.2645V18.6387H10.7806V8.94396C10.7806 8.18938 11.0479 7.54464 11.5837 7.00703C12.1195 6.46948 12.7641 6.20134 13.5205 6.20134H16.2645V11.6852H13.9971H13.9471V11.7352V13.1048ZM20.0515 11.7352V11.6852H20.0015H17.7341V6.20134H20.4753C21.2299 6.20134 21.8746 6.46901 22.4122 7.00572C22.9499 7.54428 23.218 8.18901 23.218 8.94259V18.6387H17.7341V13.1548H20.0015H20.0515V13.1048V11.7352Z" fill="#747474" stroke="black" stroke-width="0.1"/>
<path d="M6.63186 31.0519C6.45586 30.7293 6.21386 30.4836 5.90586 30.3149C5.59786 30.1463 5.23852 30.0619 4.82786 30.0619C4.37319 30.0619 3.96986 30.1646 3.61786 30.3699C3.26586 30.5753 2.99086 30.8686 2.79286 31.2499C2.59486 31.6313 2.49586 32.0713 2.49586 32.5699C2.49586 33.0833 2.59486 33.5306 2.79286 33.9119C2.99819 34.2933 3.28052 34.5866 3.63986 34.7919C3.99919 34.9973 4.41719 35.0999 4.89386 35.0999C5.48052 35.0999 5.96086 34.9459 6.33486 34.6379C6.70886 34.3226 6.95452 33.8863 7.07186 33.3289H4.43186V32.1519H8.58986V33.4939C8.48719 34.0293 8.26719 34.5243 7.92986 34.9789C7.59252 35.4336 7.15619 35.8003 6.62086 36.0789C6.09286 36.3503 5.49886 36.4859 4.83886 36.4859C4.09819 36.4859 3.42719 36.3209 2.82586 35.9909C2.23186 35.6536 1.76252 35.1879 1.41786 34.5939C1.08052 33.9999 0.911855 33.3253 0.911855 32.5699C0.911855 31.8146 1.08052 31.1399 1.41786 30.5459C1.76252 29.9446 2.23186 29.4789 2.82586 29.1489C3.42719 28.8116 4.09452 28.6429 4.82786 28.6429C5.69319 28.6429 6.44486 28.8556 7.08286 29.2809C7.72086 29.6989 8.16086 30.2893 8.40286 31.0519H6.63186ZM9.33321 33.3509C9.33321 32.7349 9.45421 32.1886 9.69621 31.7119C9.94555 31.2353 10.2792 30.8686 10.6972 30.6119C11.1225 30.3553 11.5955 30.2269 12.1162 30.2269C12.5709 30.2269 12.9669 30.3186 13.3042 30.5019C13.6489 30.6853 13.9239 30.9163 14.1292 31.1949V30.3259H15.6802V36.4199H14.1292V35.5289C13.9312 35.8149 13.6562 36.0533 13.3042 36.2439C12.9595 36.4273 12.5599 36.5189 12.1052 36.5189C11.5919 36.5189 11.1225 36.3869 10.6972 36.1229C10.2792 35.8589 9.94555 35.4886 9.69621 35.0119C9.45421 34.5279 9.33321 33.9743 9.33321 33.3509ZM14.1292 33.3729C14.1292 32.9989 14.0559 32.6799 13.9092 32.4159C13.7625 32.1446 13.5645 31.9393 13.3152 31.7999C13.0659 31.6533 12.7982 31.5799 12.5122 31.5799C12.2262 31.5799 11.9622 31.6496 11.7202 31.7889C11.4782 31.9283 11.2802 32.1336 11.1262 32.4049C10.9795 32.6689 10.9062 32.9843 10.9062 33.3509C10.9062 33.7176 10.9795 34.0403 11.1262 34.3189C11.2802 34.5903 11.4782 34.7993 11.7202 34.9459C11.9695 35.0926 12.2335 35.1659 12.5122 35.1659C12.7982 35.1659 13.0659 35.0963 13.3152 34.9569C13.5645 34.8103 13.7625 34.6049 13.9092 34.3409C14.0559 34.0696 14.1292 33.7469 14.1292 33.3729ZM18.9773 31.5909V34.5389C18.9773 34.7443 19.025 34.8946 19.1203 34.9899C19.223 35.0779 19.3916 35.1219 19.6263 35.1219H20.3413V36.4199H19.3733C18.0753 36.4199 17.4263 35.7893 17.4263 34.5279V31.5909H16.7003V30.3259H17.4263V28.8189H18.9773V30.3259H20.3413V31.5909H18.9773ZM27.1139 33.2409C27.1139 33.4609 27.0993 33.6589 27.0699 33.8349H22.6149C22.6516 34.2749 22.8056 34.6196 23.0769 34.8689C23.3483 35.1183 23.6819 35.2429 24.0779 35.2429C24.6499 35.2429 25.0569 34.9973 25.2989 34.5059H26.9599C26.7839 35.0926 26.4466 35.5766 25.9479 35.9579C25.4493 36.3319 24.8369 36.5189 24.1109 36.5189C23.5243 36.5189 22.9963 36.3906 22.5269 36.1339C22.0649 35.8699 21.7019 35.4996 21.4379 35.0229C21.1813 34.5463 21.0529 33.9963 21.0529 33.3729C21.0529 32.7423 21.1813 32.1886 21.4379 31.7119C21.6946 31.2353 22.0539 30.8686 22.5159 30.6119C22.9779 30.3553 23.5096 30.2269 24.1109 30.2269C24.6903 30.2269 25.2073 30.3516 25.6619 30.6009C26.1239 30.8503 26.4796 31.2059 26.7289 31.6679C26.9856 32.1226 27.1139 32.6469 27.1139 33.2409ZM25.5189 32.8009C25.5116 32.4049 25.3686 32.0896 25.0899 31.8549C24.8113 31.6129 24.4703 31.4919 24.0669 31.4919C23.6856 31.4919 23.3629 31.6093 23.0989 31.8439C22.8423 32.0713 22.6846 32.3903 22.6259 32.8009H25.5189ZM30.57 36.5189C30.0713 36.5189 29.624 36.4309 29.228 36.2549C28.832 36.0716 28.5167 35.8259 28.282 35.5179C28.0547 35.2099 27.93 34.8689 27.908 34.4949H29.459C29.4883 34.7296 29.602 34.9239 29.8 35.0779C30.0053 35.2319 30.2583 35.3089 30.559 35.3089C30.8523 35.3089 31.0797 35.2503 31.241 35.1329C31.4097 35.0156 31.494 34.8653 31.494 34.6819C31.494 34.4839 31.3913 34.3373 31.186 34.2419C30.988 34.1393 30.669 34.0293 30.229 33.9119C29.7743 33.8019 29.4003 33.6883 29.107 33.5709C28.821 33.4536 28.5717 33.2739 28.359 33.0319C28.1537 32.7899 28.051 32.4636 28.051 32.0529C28.051 31.7156 28.1463 31.4076 28.337 31.1289C28.535 30.8503 28.8137 30.6303 29.173 30.4689C29.5397 30.3076 29.9687 30.2269 30.46 30.2269C31.186 30.2269 31.7653 30.4103 32.198 30.7769C32.6307 31.1363 32.869 31.6239 32.913 32.2399H31.439C31.417 31.9979 31.3143 31.8073 31.131 31.6679C30.955 31.5213 30.7167 31.4479 30.416 31.4479C30.1373 31.4479 29.921 31.4993 29.767 31.6019C29.6203 31.7046 29.547 31.8476 29.547 32.0309C29.547 32.2363 29.6497 32.3939 29.855 32.5039C30.0603 32.6066 30.3793 32.7129 30.812 32.8229C31.252 32.9329 31.615 33.0466 31.901 33.1639C32.187 33.2813 32.4327 33.4646 32.638 33.7139C32.8507 33.9559 32.9607 34.2786 32.968 34.6819C32.968 35.0339 32.869 35.3493 32.671 35.6279C32.4803 35.9066 32.2017 36.1266 31.835 36.2879C31.4757 36.4419 31.054 36.5189 30.57 36.5189Z" fill="#747474"/>
</svg>
