<svg width="44" height="42" viewBox="0 0 44 42" fill="none" xmlns="http://www.w3.org/2000/svg">
<g clip-path="url(#clip0_973_10476)">
<path d="M25 1.16992C25 0.971009 25.079 0.780244 25.2197 0.639592C25.3603 0.49894 25.5511 0.419922 25.75 0.419922L31.75 0.419922C31.9489 0.419922 32.1397 0.49894 32.2803 0.639592C32.421 0.780244 32.5 0.971009 32.5 1.16992V8.66992C32.5 8.86883 32.421 9.0596 32.2803 9.20025C32.1397 9.3409 31.9489 9.41992 31.75 9.41992H29.5V22.1699C29.5 22.3688 29.421 22.5596 29.2803 22.7003C29.1397 22.8409 28.9489 22.9199 28.75 22.9199C28.5511 22.9199 28.3603 22.8409 28.2197 22.7003C28.079 22.5596 28 22.3688 28 22.1699V9.41992H25.75C25.5511 9.41992 25.3603 9.3409 25.2197 9.20025C25.079 9.0596 25 8.86883 25 8.66992V1.16992ZM17.9785 3.41992H23.5V4.91992H17.9785C17.6139 4.91984 17.2617 5.05258 16.9878 5.29331C16.714 5.53405 16.5372 5.86629 16.4905 6.22792L16.078 9.41992H23.6275C23.7827 9.85879 24.0701 10.2387 24.4503 10.5074C24.8304 10.776 25.2845 10.9202 25.75 10.9199H15.25C15.0511 10.9199 14.8603 10.9989 14.7197 11.1396C14.579 11.2802 14.5 11.471 14.5 11.6699V16.1699C14.5 16.3688 14.579 16.5596 14.7197 16.7003C14.8603 16.8409 15.0511 16.9199 15.25 16.9199H26.5V18.4199H17.5V20.2949C17.5 20.5933 17.3815 20.8794 17.1705 21.0904C16.9595 21.3014 16.6734 21.4199 16.375 21.4199C16.0766 21.4199 15.7905 21.3014 15.5795 21.0904C15.3685 20.8794 15.25 20.5933 15.25 20.2949V18.4199C14.6533 18.4199 14.081 18.1829 13.659 17.7609C13.2371 17.339 13 16.7667 13 16.1699V11.6699C12.9999 11.1954 13.1499 10.733 13.4285 10.3488C13.707 9.96461 14.0999 9.67835 14.551 9.53092L14.566 9.41992H13.75C13.5511 9.41992 13.3603 9.3409 13.2197 9.20025C13.079 9.0596 13 8.86883 13 8.66992C13 8.47101 13.079 8.28024 13.2197 8.13959C13.3603 7.99894 13.5511 7.91992 13.75 7.91992H14.7595L15.0025 6.03592C15.0959 5.31241 15.4497 4.64771 15.9977 4.1662C16.5458 3.6847 17.2505 3.41939 17.98 3.41992M26.125 12.7964C26.257 12.7964 26.3825 12.8179 26.5015 12.8609V14.9789C26.3319 15.0399 26.15 15.0591 25.9714 15.0349C25.7928 15.0107 25.6226 14.9438 25.4753 14.8399C25.328 14.7361 25.2079 14.5982 25.1252 14.438C25.0424 14.2779 24.9995 14.1002 25 13.9199C25 13.2989 25.5025 12.7964 26.1235 12.7964M19 13.9199C19 14.0675 18.9709 14.2136 18.9145 14.3499C18.858 14.4862 18.7753 14.61 18.6709 14.7144C18.5666 14.8187 18.4428 14.9014 18.3064 14.9579C18.1701 15.0144 18.024 15.0434 17.8765 15.0434C17.729 15.0434 17.5829 15.0144 17.4466 14.9579C17.3102 14.9014 17.1864 14.8187 17.0821 14.7144C16.9777 14.61 16.895 14.4862 16.8385 14.3499C16.7821 14.2136 16.753 14.0675 16.753 13.9199C16.753 13.622 16.8714 13.3362 17.0821 13.1255C17.2928 12.9148 17.5785 12.7964 17.8765 12.7964C18.1745 12.7964 18.4602 12.9148 18.6709 13.1255C18.8816 13.3362 19 13.622 19 13.9199Z" fill="#747474"/>
</g>
<path d="M6.95419 31.1179C6.95419 31.5286 6.85519 31.9136 6.65719 32.2729C6.46652 32.6323 6.16219 32.9219 5.74419 33.1419C5.33353 33.3619 4.81286 33.4719 4.18219 33.4719H2.89519V36.4199H1.35519V28.7419H4.18219C4.77619 28.7419 5.28219 28.8446 5.70019 29.0499C6.11819 29.2553 6.42986 29.5376 6.63519 29.8969C6.84786 30.2563 6.95419 30.6633 6.95419 31.1179ZM4.11619 32.2289C4.54152 32.2289 4.85686 32.1336 5.06219 31.9429C5.26752 31.7449 5.37019 31.4699 5.37019 31.1179C5.37019 30.3699 4.95219 29.9959 4.11619 29.9959H2.89519V32.2289H4.11619ZM7.65157 33.3509C7.65157 32.7349 7.77257 32.1886 8.01457 31.7119C8.26391 31.2353 8.59757 30.8686 9.01557 30.6119C9.44091 30.3553 9.91391 30.2269 10.4346 30.2269C10.8892 30.2269 11.2852 30.3186 11.6226 30.5019C11.9672 30.6853 12.2422 30.9163 12.4476 31.1949V30.3259H13.9986V36.4199H12.4476V35.5289C12.2496 35.8149 11.9746 36.0533 11.6226 36.2439C11.2779 36.4273 10.8782 36.5189 10.4236 36.5189C9.91024 36.5189 9.44091 36.3869 9.01557 36.1229C8.59757 35.8589 8.26391 35.4886 8.01457 35.0119C7.77257 34.5279 7.65157 33.9743 7.65157 33.3509ZM12.4476 33.3729C12.4476 32.9989 12.3742 32.6799 12.2276 32.4159C12.0809 32.1446 11.8829 31.9393 11.6336 31.7999C11.3842 31.6533 11.1166 31.5799 10.8306 31.5799C10.5446 31.5799 10.2806 31.6496 10.0386 31.7889C9.79657 31.9283 9.59857 32.1336 9.44457 32.4049C9.29791 32.6689 9.22457 32.9843 9.22457 33.3509C9.22457 33.7176 9.29791 34.0403 9.44457 34.3189C9.59857 34.5903 9.79657 34.7993 10.0386 34.9459C10.2879 35.0926 10.5519 35.1659 10.8306 35.1659C11.1166 35.1659 11.3842 35.0963 11.6336 34.9569C11.8829 34.8103 12.0809 34.6049 12.2276 34.3409C12.3742 34.0696 12.4476 33.7469 12.4476 33.3729ZM17.0427 31.2719C17.2407 30.9493 17.4973 30.6963 17.8127 30.5129C18.1353 30.3296 18.502 30.2379 18.9127 30.2379V31.8549H18.5057C18.0217 31.8549 17.655 31.9686 17.4057 32.1959C17.1637 32.4233 17.0427 32.8193 17.0427 33.3839V36.4199H15.5027V30.3259H17.0427V31.2719ZM23.5579 36.4199L21.4899 33.8239V36.4199H19.9499V28.2799H21.4899V32.9109L23.5359 30.3259H25.5379L22.8539 33.3839L25.5599 36.4199H23.5579ZM27.1547 29.5999C26.8834 29.5999 26.6561 29.5156 26.4727 29.3469C26.2967 29.1709 26.2087 28.9546 26.2087 28.6979C26.2087 28.4413 26.2967 28.2286 26.4727 28.0599C26.6561 27.8839 26.8834 27.7959 27.1547 27.7959C27.4261 27.7959 27.6497 27.8839 27.8257 28.0599C28.0091 28.2286 28.1007 28.4413 28.1007 28.6979C28.1007 28.9546 28.0091 29.1709 27.8257 29.3469C27.6497 29.5156 27.4261 29.5999 27.1547 29.5999ZM27.9137 30.3259V36.4199H26.3737V30.3259H27.9137ZM32.8123 30.2379C33.5383 30.2379 34.1249 30.4689 34.5723 30.9309C35.0196 31.3856 35.2433 32.0236 35.2433 32.8449V36.4199H33.7033V33.0539C33.7033 32.5699 33.5823 32.1996 33.3403 31.9429C33.0983 31.6789 32.7683 31.5469 32.3503 31.5469C31.9249 31.5469 31.5876 31.6789 31.3383 31.9429C31.0963 32.1996 30.9753 32.5699 30.9753 33.0539V36.4199H29.4353V30.3259H30.9753V31.0849C31.1806 30.8209 31.4409 30.6156 31.7563 30.4689C32.0789 30.3149 32.4309 30.2379 32.8123 30.2379ZM39.0947 30.2269C39.5494 30.2269 39.9491 30.3186 40.2937 30.5019C40.6384 30.6779 40.9097 30.9089 41.1077 31.1949V30.3259H42.6587V36.4639C42.6587 37.0286 42.5451 37.5309 42.3177 37.9709C42.0904 38.4183 41.7494 38.7703 41.2947 39.0269C40.8401 39.2909 40.2901 39.4229 39.6447 39.4229C38.7794 39.4229 38.0681 39.2213 37.5107 38.8179C36.9607 38.4146 36.6491 37.8646 36.5757 37.1679H38.1047C38.1854 37.4466 38.3577 37.6666 38.6217 37.8279C38.8931 37.9966 39.2194 38.0809 39.6007 38.0809C40.0481 38.0809 40.4111 37.9453 40.6897 37.6739C40.9684 37.4099 41.1077 37.0066 41.1077 36.4639V35.5179C40.9097 35.8039 40.6347 36.0423 40.2827 36.2329C39.9381 36.4236 39.5421 36.5189 39.0947 36.5189C38.5814 36.5189 38.1121 36.3869 37.6867 36.1229C37.2614 35.8589 36.9241 35.4886 36.6747 35.0119C36.4327 34.5279 36.3117 33.9743 36.3117 33.3509C36.3117 32.7349 36.4327 32.1886 36.6747 31.7119C36.9241 31.2353 37.2577 30.8686 37.6757 30.6119C38.1011 30.3553 38.5741 30.2269 39.0947 30.2269ZM41.1077 33.3729C41.1077 32.9989 41.0344 32.6799 40.8877 32.4159C40.7411 32.1446 40.5431 31.9393 40.2937 31.7999C40.0444 31.6533 39.7767 31.5799 39.4907 31.5799C39.2047 31.5799 38.9407 31.6496 38.6987 31.7889C38.4567 31.9283 38.2587 32.1336 38.1047 32.4049C37.9581 32.6689 37.8847 32.9843 37.8847 33.3509C37.8847 33.7176 37.9581 34.0403 38.1047 34.3189C38.2587 34.5903 38.4567 34.7993 38.6987 34.9459C38.9481 35.0926 39.2121 35.1659 39.4907 35.1659C39.7767 35.1659 40.0444 35.0963 40.2937 34.9569C40.5431 34.8103 40.7411 34.6049 40.8877 34.3409C41.0344 34.0696 41.1077 33.7469 41.1077 33.3729Z" fill="#747474"/>
<defs>
<clipPath id="clip0_973_10476">
<rect width="24" height="24" fill="white" transform="translate(10 0.419922)"/>
</clipPath>
</defs>
</svg>
