<svg viewBox="0 0 56 50" fill="none" xmlns="http://www.w3.org/2000/svg">
<path d="M21 4.41992C18.8 4.41992 17 6.21992 17 8.41992C17 9.53292 17.477 10.5369 18.219 11.2639C17.5386 11.7236 16.9808 12.3424 16.5941 13.0667C16.2074 13.791 16.0034 14.5988 16 15.4199V21.0449L18 22.0449V28.4199H24V22.0449L26 21.0449V15.4199C25.9966 14.5988 25.7926 13.791 25.4059 13.0667C25.0192 12.3424 24.4614 11.7236 23.781 11.2639C24.523 10.5369 25 9.53392 25 8.41992C25 6.21992 23.2 4.41992 21 4.41992ZM34 4.41992C31.8 4.41992 30 6.21992 30 8.41992C30 9.57192 30.523 10.5959 31.313 11.3259C30.3701 12.0318 29.7326 13.0714 29.531 14.2319V14.2639L28.031 22.2329L27.781 23.4199H31V28.4199H37V23.4199H40.219L39.969 22.2319L38.469 14.2639V14.2329C38.2677 13.072 37.6302 12.0321 36.687 11.3259C37.477 10.5959 38 9.57192 38 8.41992C38 6.21992 36.2 4.41992 34 4.41992ZM21 6.41992C22.117 6.41992 23 7.30292 23 8.41992C23 9.53692 22.117 10.4199 21 10.4199C19.883 10.4199 19 9.53692 19 8.41992C19 7.30292 19.883 6.41992 21 6.41992ZM34 6.41992C35.117 6.41992 36 7.30292 36 8.41992C36 9.53692 35.117 10.4199 34 10.4199C32.883 10.4199 32 9.53692 32 8.41992C32 7.30292 32.883 6.41992 34 6.41992ZM21 12.4199C21.7956 12.4199 22.5587 12.736 23.1213 13.2986C23.6839 13.8612 24 14.6243 24 15.4199V19.7949L22 20.7949V26.4199H20V20.7949L18 19.7949V15.4199C18 14.6243 18.3161 13.8612 18.8787 13.2986C19.4413 12.736 20.2044 12.4199 21 12.4199ZM34 12.4199C35.23 12.4199 36.277 13.2359 36.5 14.5759V14.6069H36.531L37.813 21.4199H35V26.4199H33V21.4199H30.187L31.469 14.6069H31.5V14.5769C31.723 13.2359 32.77 12.4199 34 12.4199Z" fill="#747474"/>
<path d="M5.67017 44.4199L3.97617 41.4279H3.25017V44.4199H1.71017V36.7419H4.59217C5.18617 36.7419 5.69217 36.8483 6.11017 37.0609C6.52817 37.2663 6.83984 37.5486 7.04517 37.9079C7.25784 38.2599 7.36417 38.6559 7.36417 39.0959C7.36417 39.6019 7.21751 40.0603 6.92417 40.4709C6.63084 40.8743 6.19451 41.1529 5.61517 41.3069L7.45217 44.4199H5.67017ZM3.25017 40.2729H4.53717C4.95517 40.2729 5.26684 40.1739 5.47217 39.9759C5.67751 39.7706 5.78017 39.4883 5.78017 39.1289C5.78017 38.7769 5.67751 38.5056 5.47217 38.3149C5.26684 38.1169 4.95517 38.0179 4.53717 38.0179H3.25017V40.2729ZM14.422 41.2409C14.422 41.4609 14.4074 41.6589 14.378 41.8349H9.92305C9.95971 42.2749 10.1137 42.6196 10.385 42.8689C10.6564 43.1183 10.99 43.2429 11.386 43.2429C11.958 43.2429 12.365 42.9973 12.607 42.5059H14.268C14.092 43.0926 13.7547 43.5766 13.256 43.9579C12.7574 44.3319 12.145 44.5189 11.419 44.5189C10.8324 44.5189 10.3044 44.3906 9.83505 44.1339C9.37305 43.8699 9.01005 43.4996 8.74605 43.0229C8.48938 42.5463 8.36105 41.9963 8.36105 41.3729C8.36105 40.7423 8.48938 40.1886 8.74605 39.7119C9.00271 39.2353 9.36205 38.8686 9.82405 38.6119C10.286 38.3553 10.8177 38.2269 11.419 38.2269C11.9984 38.2269 12.5154 38.3516 12.97 38.6009C13.432 38.8503 13.7877 39.2059 14.037 39.6679C14.2937 40.1226 14.422 40.6469 14.422 41.2409ZM12.827 40.8009C12.8197 40.4049 12.6767 40.0896 12.398 39.8549C12.1194 39.6129 11.7784 39.4919 11.375 39.4919C10.9937 39.4919 10.671 39.6093 10.407 39.8439C10.1504 40.0713 9.99271 40.3903 9.93405 40.8009H12.827ZM17.8781 44.5189C17.3794 44.5189 16.9321 44.4309 16.5361 44.2549C16.1401 44.0716 15.8248 43.8259 15.5901 43.5179C15.3628 43.2099 15.2381 42.8689 15.2161 42.4949H16.7671C16.7964 42.7296 16.9101 42.9239 17.1081 43.0779C17.3134 43.2319 17.5664 43.3089 17.8671 43.3089C18.1604 43.3089 18.3878 43.2503 18.5491 43.1329C18.7178 43.0156 18.8021 42.8653 18.8021 42.6819C18.8021 42.4839 18.6994 42.3373 18.4941 42.2419C18.2961 42.1393 17.9771 42.0293 17.5371 41.9119C17.0824 41.8019 16.7084 41.6883 16.4151 41.5709C16.1291 41.4536 15.8798 41.2739 15.6671 41.0319C15.4618 40.7899 15.3591 40.4636 15.3591 40.0529C15.3591 39.7156 15.4544 39.4076 15.6451 39.1289C15.8431 38.8503 16.1218 38.6303 16.4811 38.4689C16.8478 38.3076 17.2768 38.2269 17.7681 38.2269C18.4941 38.2269 19.0734 38.4103 19.5061 38.7769C19.9388 39.1363 20.1771 39.6239 20.2211 40.2399H18.7471C18.7251 39.9979 18.6224 39.8073 18.4391 39.6679C18.2631 39.5213 18.0248 39.4479 17.7241 39.4479C17.4454 39.4479 17.2291 39.4993 17.0751 39.6019C16.9284 39.7046 16.8551 39.8476 16.8551 40.0309C16.8551 40.2363 16.9578 40.3939 17.1631 40.5039C17.3684 40.6066 17.6874 40.7129 18.1201 40.8229C18.5601 40.9329 18.9231 41.0466 19.2091 41.1639C19.4951 41.2813 19.7408 41.4646 19.9461 41.7139C20.1588 41.9559 20.2688 42.2786 20.2761 42.6819C20.2761 43.0339 20.1771 43.3493 19.9791 43.6279C19.7884 43.9066 19.5098 44.1266 19.1431 44.2879C18.7838 44.4419 18.3621 44.5189 17.8781 44.5189ZM23.3333 39.5909V42.5389C23.3333 42.7443 23.3809 42.8946 23.4763 42.9899C23.5789 43.0779 23.7476 43.1219 23.9823 43.1219H24.6973V44.4199H23.7293C22.4313 44.4199 21.7823 43.7893 21.7823 42.5279V39.5909H21.0563V38.3259H21.7823V36.8189H23.3333V38.3259H24.6973V39.5909H23.3333ZM27.3449 39.2719C27.5429 38.9493 27.7996 38.6963 28.1149 38.5129C28.4376 38.3296 28.8042 38.2379 29.2149 38.2379V39.8549H28.8079C28.3239 39.8549 27.9572 39.9686 27.7079 40.1959C27.4659 40.4233 27.3449 40.8193 27.3449 41.3839V44.4199H25.8049V38.3259H27.3449V39.2719ZM32.9582 44.5189C32.3715 44.5189 31.8435 44.3906 31.3742 44.1339C30.9048 43.8699 30.5345 43.4996 30.2632 43.0229C29.9992 42.5463 29.8672 41.9963 29.8672 41.3729C29.8672 40.7496 30.0028 40.1996 30.2742 39.7229C30.5528 39.2463 30.9305 38.8796 31.4072 38.6229C31.8838 38.3589 32.4155 38.2269 33.0022 38.2269C33.5888 38.2269 34.1205 38.3589 34.5972 38.6229C35.0738 38.8796 35.4478 39.2463 35.7192 39.7229C35.9978 40.1996 36.1372 40.7496 36.1372 41.3729C36.1372 41.9963 35.9942 42.5463 35.7082 43.0229C35.4295 43.4996 35.0482 43.8699 34.5642 44.1339C34.0875 44.3906 33.5522 44.5189 32.9582 44.5189ZM32.9582 43.1769C33.2368 43.1769 33.4972 43.1109 33.7392 42.9789C33.9885 42.8396 34.1865 42.6343 34.3332 42.3629C34.4798 42.0916 34.5532 41.7616 34.5532 41.3729C34.5532 40.7936 34.3992 40.3499 34.0912 40.0419C33.7905 39.7266 33.4202 39.5689 32.9802 39.5689C32.5402 39.5689 32.1698 39.7266 31.8692 40.0419C31.5758 40.3499 31.4292 40.7936 31.4292 41.3729C31.4292 41.9523 31.5722 42.3996 31.8582 42.7149C32.1515 43.0229 32.5182 43.1769 32.9582 43.1769ZM39.9728 44.5189C39.3861 44.5189 38.8581 44.3906 38.3888 44.1339C37.9195 43.8699 37.5491 43.4996 37.2778 43.0229C37.0138 42.5463 36.8818 41.9963 36.8818 41.3729C36.8818 40.7496 37.0175 40.1996 37.2888 39.7229C37.5675 39.2463 37.9451 38.8796 38.4218 38.6229C38.8985 38.3589 39.4301 38.2269 40.0168 38.2269C40.6035 38.2269 41.1351 38.3589 41.6118 38.6229C42.0885 38.8796 42.4625 39.2463 42.7338 39.7229C43.0125 40.1996 43.1518 40.7496 43.1518 41.3729C43.1518 41.9963 43.0088 42.5463 42.7228 43.0229C42.4441 43.4996 42.0628 43.8699 41.5788 44.1339C41.1021 44.3906 40.5668 44.5189 39.9728 44.5189ZM39.9728 43.1769C40.2515 43.1769 40.5118 43.1109 40.7538 42.9789C41.0031 42.8396 41.2011 42.6343 41.3478 42.3629C41.4945 42.0916 41.5678 41.7616 41.5678 41.3729C41.5678 40.7936 41.4138 40.3499 41.1058 40.0419C40.8051 39.7266 40.4348 39.5689 39.9948 39.5689C39.5548 39.5689 39.1845 39.7266 38.8838 40.0419C38.5905 40.3499 38.4438 40.7936 38.4438 41.3729C38.4438 41.9523 38.5868 42.3996 38.8728 42.7149C39.1661 43.0229 39.5328 43.1769 39.9728 43.1769ZM51.8495 38.2379C52.5975 38.2379 53.1988 38.4689 53.6535 38.9309C54.1155 39.3856 54.3465 40.0236 54.3465 40.8449V44.4199H52.8065V41.0539C52.8065 40.5773 52.6855 40.2143 52.4435 39.9649C52.2015 39.7083 51.8715 39.5799 51.4535 39.5799C51.0355 39.5799 50.7018 39.7083 50.4525 39.9649C50.2105 40.2143 50.0895 40.5773 50.0895 41.0539V44.4199H48.5495V41.0539C48.5495 40.5773 48.4285 40.2143 48.1865 39.9649C47.9445 39.7083 47.6145 39.5799 47.1965 39.5799C46.7711 39.5799 46.4338 39.7083 46.1845 39.9649C45.9425 40.2143 45.8215 40.5773 45.8215 41.0539V44.4199H44.2815V38.3259H45.8215V39.0629C46.0195 38.8063 46.2725 38.6046 46.5805 38.4579C46.8958 38.3113 47.2405 38.2379 47.6145 38.2379C48.0911 38.2379 48.5165 38.3406 48.8905 38.5459C49.2645 38.7439 49.5541 39.0299 49.7595 39.4039C49.9575 39.0519 50.2435 38.7696 50.6175 38.5569C50.9988 38.3443 51.4095 38.2379 51.8495 38.2379Z" fill="#747474"/>
</svg>
