<svg width="36" height="42" viewBox="0 0 36 42" fill="none" xmlns="http://www.w3.org/2000/svg">
<path d="M10.005 16.4199V4.41992H8.005V2.41992H11.005C11.2702 2.41992 11.5246 2.52528 11.7121 2.71282C11.8996 2.90035 12.005 3.15471 12.005 3.41992V15.4199H24.443L26.443 7.41992H14.005V5.41992H27.725C27.877 5.41993 28.027 5.45458 28.1636 5.52126C28.3002 5.58793 28.4198 5.68487 28.5133 5.80471C28.6069 5.92454 28.6718 6.06412 28.7033 6.21283C28.7348 6.36154 28.7319 6.51547 28.695 6.66292L26.195 16.6629C26.1408 16.8792 26.016 17.0711 25.8402 17.2083C25.6645 17.3454 25.4479 17.4199 25.225 17.4199H11.004C10.7388 17.4199 10.4844 17.3146 10.2969 17.127C10.1094 16.9395 10.005 16.6851 10.005 16.4199ZM12.004 23.4199C11.4736 23.4199 10.9649 23.2092 10.5898 22.8341C10.2147 22.4591 10.004 21.9504 10.004 21.4199C10.004 20.8895 10.2147 20.3808 10.5898 20.0057C10.9649 19.6306 11.4736 19.4199 12.004 19.4199C12.5344 19.4199 13.0431 19.6306 13.4182 20.0057C13.7933 20.3808 14.004 20.8895 14.004 21.4199C14.004 21.9504 13.7933 22.4591 13.4182 22.8341C13.0431 23.2092 12.5344 23.4199 12.004 23.4199ZM24.004 23.4199C23.4736 23.4199 22.9649 23.2092 22.5898 22.8341C22.2147 22.4591 22.004 21.9504 22.004 21.4199C22.004 20.8895 22.2147 20.3808 22.5898 20.0057C22.9649 19.6306 23.4736 19.4199 24.004 19.4199C24.5344 19.4199 25.0431 19.6306 25.4182 20.0057C25.7933 20.3808 26.004 20.8895 26.004 21.4199C26.004 21.9504 25.7933 22.4591 25.4182 22.8341C25.0431 23.2092 24.5344 23.4199 24.004 23.4199Z" fill="#747474"/>
<path d="M4.19027 36.4969C3.65494 36.4969 3.17094 36.4053 2.73827 36.2219C2.31294 36.0386 1.97561 35.7746 1.72627 35.4299C1.47694 35.0853 1.34861 34.6783 1.34127 34.2089H2.99127C3.01327 34.5243 3.12327 34.7736 3.32127 34.9569C3.52661 35.1403 3.80527 35.2319 4.15727 35.2319C4.51661 35.2319 4.79894 35.1476 5.00427 34.9789C5.20961 34.8029 5.31227 34.5756 5.31227 34.2969C5.31227 34.0696 5.24261 33.8826 5.10327 33.7359C4.96394 33.5893 4.78794 33.4756 4.57527 33.3949C4.36994 33.3069 4.08394 33.2116 3.71727 33.1089C3.21861 32.9623 2.81161 32.8193 2.49627 32.6799C2.18827 32.5333 1.92061 32.3169 1.69327 32.0309C1.47327 31.7376 1.36327 31.3489 1.36327 30.8649C1.36327 30.4103 1.47694 30.0143 1.70427 29.6769C1.93161 29.3396 2.25061 29.0829 2.66127 28.9069C3.07194 28.7236 3.54127 28.6319 4.06927 28.6319C4.86127 28.6319 5.50294 28.8263 5.99427 29.2149C6.49294 29.5963 6.76794 30.1316 6.81927 30.8209H5.12527C5.11061 30.5569 4.99694 30.3406 4.78427 30.1719C4.57894 29.9959 4.30394 29.9079 3.95927 29.9079C3.65861 29.9079 3.41661 29.9849 3.23327 30.1389C3.05727 30.2929 2.96927 30.5166 2.96927 30.8099C2.96927 31.0153 3.03527 31.1876 3.16727 31.3269C3.30661 31.4589 3.47527 31.5689 3.67327 31.6569C3.87861 31.7376 4.16461 31.8329 4.53127 31.9429C5.02994 32.0896 5.43694 32.2363 5.75227 32.3829C6.06761 32.5296 6.33894 32.7496 6.56627 33.0429C6.79361 33.3363 6.90727 33.7213 6.90727 34.1979C6.90727 34.6086 6.80094 34.9899 6.58827 35.3419C6.37561 35.6939 6.06394 35.9763 5.65327 36.1889C5.24261 36.3943 4.75494 36.4969 4.19027 36.4969ZM11.6744 30.2379C12.1364 30.2379 12.5471 30.3406 12.9064 30.5459C13.2657 30.7439 13.5444 31.0409 13.7424 31.4369C13.9477 31.8256 14.0504 32.2949 14.0504 32.8449V36.4199H12.5104V33.0539C12.5104 32.5699 12.3894 32.1996 12.1474 31.9429C11.9054 31.6789 11.5754 31.5469 11.1574 31.5469C10.7321 31.5469 10.3947 31.6789 10.1454 31.9429C9.9034 32.1996 9.7824 32.5699 9.7824 33.0539V36.4199H8.2424V28.2799H9.7824V31.0849C9.9804 30.8209 10.2444 30.6156 10.5744 30.4689C10.9044 30.3149 11.2711 30.2379 11.6744 30.2379ZM18.2209 36.5189C17.6342 36.5189 17.1062 36.3906 16.6369 36.1339C16.1675 35.8699 15.7972 35.4996 15.5259 35.0229C15.2619 34.5463 15.1299 33.9963 15.1299 33.3729C15.1299 32.7496 15.2655 32.1996 15.5369 31.7229C15.8155 31.2463 16.1932 30.8796 16.6699 30.6229C17.1465 30.3589 17.6782 30.2269 18.2649 30.2269C18.8515 30.2269 19.3832 30.3589 19.8599 30.6229C20.3365 30.8796 20.7105 31.2463 20.9819 31.7229C21.2605 32.1996 21.3999 32.7496 21.3999 33.3729C21.3999 33.9963 21.2569 34.5463 20.9709 35.0229C20.6922 35.4996 20.3109 35.8699 19.8269 36.1339C19.3502 36.3906 18.8149 36.5189 18.2209 36.5189ZM18.2209 35.1769C18.4995 35.1769 18.7599 35.1109 19.0019 34.9789C19.2512 34.8396 19.4492 34.6343 19.5959 34.3629C19.7425 34.0916 19.8159 33.7616 19.8159 33.3729C19.8159 32.7936 19.6619 32.3499 19.3539 32.0419C19.0532 31.7266 18.6829 31.5689 18.2429 31.5689C17.8029 31.5689 17.4325 31.7266 17.1319 32.0419C16.8385 32.3499 16.6919 32.7936 16.6919 33.3729C16.6919 33.9523 16.8349 34.3996 17.1209 34.7149C17.4142 35.0229 17.7809 35.1769 18.2209 35.1769ZM24.0695 31.2059C24.2675 30.9273 24.5388 30.6963 24.8835 30.5129C25.2355 30.3223 25.6352 30.2269 26.0825 30.2269C26.6032 30.2269 27.0725 30.3553 27.4905 30.6119C27.9158 30.8686 28.2495 31.2353 28.4915 31.7119C28.7408 32.1813 28.8655 32.7276 28.8655 33.3509C28.8655 33.9743 28.7408 34.5279 28.4915 35.0119C28.2495 35.4886 27.9158 35.8589 27.4905 36.1229C27.0725 36.3869 26.6032 36.5189 26.0825 36.5189C25.6352 36.5189 25.2392 36.4273 24.8945 36.2439C24.5572 36.0606 24.2822 35.8296 24.0695 35.5509V39.3239H22.5295V30.3259H24.0695V31.2059ZM27.2925 33.3509C27.2925 32.9843 27.2155 32.6689 27.0615 32.4049C26.9148 32.1336 26.7168 31.9283 26.4675 31.7889C26.2255 31.6496 25.9615 31.5799 25.6755 31.5799C25.3968 31.5799 25.1328 31.6533 24.8835 31.7999C24.6415 31.9393 24.4435 32.1446 24.2895 32.4159C24.1428 32.6873 24.0695 33.0063 24.0695 33.3729C24.0695 33.7396 24.1428 34.0586 24.2895 34.3299C24.4435 34.6013 24.6415 34.8103 24.8835 34.9569C25.1328 35.0963 25.3968 35.1659 25.6755 35.1659C25.9615 35.1659 26.2255 35.0926 26.4675 34.9459C26.7168 34.7993 26.9148 34.5903 27.0615 34.3189C27.2155 34.0476 27.2925 33.7249 27.2925 33.3509ZM32.3166 36.5189C31.8179 36.5189 31.3706 36.4309 30.9746 36.2549C30.5786 36.0716 30.2633 35.8259 30.0286 35.5179C29.8013 35.2099 29.6766 34.8689 29.6546 34.4949H31.2056C31.2349 34.7296 31.3486 34.9239 31.5466 35.0779C31.7519 35.2319 32.0049 35.3089 32.3056 35.3089C32.5989 35.3089 32.8263 35.2503 32.9876 35.1329C33.1563 35.0156 33.2406 34.8653 33.2406 34.6819C33.2406 34.4839 33.1379 34.3373 32.9326 34.2419C32.7346 34.1393 32.4156 34.0293 31.9756 33.9119C31.5209 33.8019 31.1469 33.6883 30.8536 33.5709C30.5676 33.4536 30.3183 33.2739 30.1056 33.0319C29.9003 32.7899 29.7976 32.4636 29.7976 32.0529C29.7976 31.7156 29.8929 31.4076 30.0836 31.1289C30.2816 30.8503 30.5603 30.6303 30.9196 30.4689C31.2863 30.3076 31.7153 30.2269 32.2066 30.2269C32.9326 30.2269 33.5119 30.4103 33.9446 30.7769C34.3773 31.1363 34.6156 31.6239 34.6596 32.2399H33.1856C33.1636 31.9979 33.0609 31.8073 32.8776 31.6679C32.7016 31.5213 32.4633 31.4479 32.1626 31.4479C31.8839 31.4479 31.6676 31.4993 31.5136 31.6019C31.3669 31.7046 31.2936 31.8476 31.2936 32.0309C31.2936 32.2363 31.3963 32.3939 31.6016 32.5039C31.8069 32.6066 32.1259 32.7129 32.5586 32.8229C32.9986 32.9329 33.3616 33.0466 33.6476 33.1639C33.9336 33.2813 34.1793 33.4646 34.3846 33.7139C34.5973 33.9559 34.7073 34.2786 34.7146 34.6819C34.7146 35.0339 34.6156 35.3493 34.4176 35.6279C34.2269 35.9066 33.9483 36.1266 33.5816 36.2879C33.2223 36.4419 32.8006 36.5189 32.3166 36.5189Z" fill="#747474"/>
</svg>
