<?xml version="1.0" encoding="utf-8"?>
<!-- Generator: Adobe Illustrator 27.4.1, SVG Export Plug-In . SVG Version: 6.00 Build 0)  -->
<svg version="1.1" id="Layer_1" xmlns="http://www.w3.org/2000/svg" xmlns:xlink="http://www.w3.org/1999/xlink" x="0px" y="0px"
	 viewBox="0 0 89.1 54.3" style="enable-background:new 0 0 89.1 54.3;" xml:space="preserve">
<style type="text/css">
	.st0{fill:none;stroke:#747474;stroke-width:1.5;stroke-linecap:round;stroke-linejoin:round;}
	.st1{fill:#747474;}
</style>
<g>
	<path class="st0" d="M48.1,7.2l5.5-5.5c0.6-0.6,1.5-0.9,2.3-0.9c0.9,0,1.7,0.3,2.3,1c0.6,0.6,1,1.4,1,2.3c0,0.9-0.3,1.7-0.9,2.3
		l-5.5,5.5l3,14.8c0.4,1.9-3.3,4.5-4.3,2l-4.4-11.2l-5.6,5.6c0.3,3.3,0.3,4.4-2,6.7L36,24l-5.9-3.5c2.3-2.3,3.4-2.3,6.7-2l5.6-5.6
		L31.3,8.5c-2.5-1,0.1-4.6,2-4.3L48.1,7.2z"/>
	<path class="st1" d="M9.1,41.7v2H5.8v10.4H3.3V43.7H0v-2H9.1z M20.1,49c0,0.4,0,0.7-0.1,1h-7.2c0.1,0.7,0.3,1.3,0.7,1.7
		c0.4,0.4,1,0.6,1.6,0.6c0.9,0,1.6-0.4,2-1.2h2.7c-0.3,0.9-0.8,1.7-1.6,2.3c-0.8,0.6-1.8,0.9-3,0.9c-0.9,0-1.8-0.2-2.6-0.6
		c-0.7-0.4-1.3-1-1.8-1.8c-0.4-0.8-0.6-1.7-0.6-2.7c0-1,0.2-1.9,0.6-2.7c0.4-0.8,1-1.4,1.7-1.8c0.7-0.4,1.6-0.6,2.6-0.6
		c0.9,0,1.8,0.2,2.5,0.6c0.7,0.4,1.3,1,1.7,1.7C19.9,47.1,20.1,48,20.1,49z M17.5,48.2c0-0.6-0.2-1.2-0.7-1.5
		c-0.5-0.4-1-0.6-1.7-0.6c-0.6,0-1.1,0.2-1.6,0.6c-0.4,0.4-0.7,0.9-0.8,1.5H17.5z M24.4,45.8c0.3-0.5,0.7-0.9,1.2-1.2
		c0.5-0.3,1.1-0.4,1.8-0.4v2.6h-0.7c-0.8,0-1.4,0.2-1.8,0.6c-0.4,0.4-0.6,1-0.6,1.9v4.9h-2.5v-9.9h2.5V45.8z M41.3,44.1
		c1.2,0,2.2,0.4,2.9,1.1c0.7,0.7,1.1,1.8,1.1,3.1v5.8h-2.5v-5.4c0-0.8-0.2-1.4-0.6-1.8c-0.4-0.4-0.9-0.6-1.6-0.6
		c-0.7,0-1.2,0.2-1.6,0.6c-0.4,0.4-0.6,1-0.6,1.8v5.4H36v-5.4c0-0.8-0.2-1.4-0.6-1.8c-0.4-0.4-0.9-0.6-1.6-0.6
		c-0.7,0-1.2,0.2-1.6,0.6c-0.4,0.4-0.6,1-0.6,1.8v5.4h-2.5v-9.9h2.5v1.2c0.3-0.4,0.7-0.7,1.2-1c0.5-0.2,1.1-0.4,1.7-0.4
		c0.8,0,1.5,0.2,2.1,0.5c0.6,0.3,1.1,0.8,1.4,1.4c0.3-0.6,0.8-1,1.4-1.4C40,44.3,40.6,44.1,41.3,44.1z M49,43.1
		c-0.4,0-0.8-0.1-1.1-0.4c-0.3-0.3-0.4-0.6-0.4-1c0-0.4,0.1-0.8,0.4-1c0.3-0.3,0.7-0.4,1.1-0.4c0.4,0,0.8,0.1,1.1,0.4
		c0.3,0.3,0.4,0.6,0.4,1c0,0.4-0.1,0.8-0.4,1C49.8,42.9,49.4,43.1,49,43.1z M50.2,44.2v9.9h-2.5v-9.9H50.2z M58.1,44.1
		c1.2,0,2.1,0.4,2.8,1.1c0.7,0.7,1.1,1.8,1.1,3.1v5.8h-2.5v-5.4c0-0.8-0.2-1.4-0.6-1.8c-0.4-0.4-0.9-0.6-1.6-0.6
		c-0.7,0-1.2,0.2-1.6,0.6c-0.4,0.4-0.6,1-0.6,1.8v5.4h-2.5v-9.9h2.5v1.2c0.3-0.4,0.8-0.8,1.3-1C57,44.2,57.5,44.1,58.1,44.1z
		 M63.8,49.1c0-1,0.2-1.9,0.6-2.7c0.4-0.8,0.9-1.4,1.6-1.8c0.7-0.4,1.5-0.6,2.3-0.6c0.7,0,1.4,0.1,1.9,0.4c0.6,0.3,1,0.7,1.3,1.1
		v-1.4h2.5v9.9h-2.5v-1.4c-0.3,0.5-0.8,0.8-1.3,1.2c-0.6,0.3-1.2,0.4-1.9,0.4c-0.8,0-1.6-0.2-2.3-0.6c-0.7-0.4-1.2-1-1.6-1.8
		C64,51,63.8,50.1,63.8,49.1z M71.6,49.2c0-0.6-0.1-1.1-0.4-1.5c-0.2-0.4-0.6-0.8-1-1c-0.4-0.2-0.8-0.4-1.3-0.4s-0.9,0.1-1.3,0.3
		c-0.4,0.2-0.7,0.6-1,1c-0.2,0.4-0.4,0.9-0.4,1.5c0,0.6,0.1,1.1,0.4,1.6c0.2,0.4,0.6,0.8,1,1c0.4,0.2,0.8,0.4,1.3,0.4
		c0.5,0,0.9-0.1,1.3-0.3c0.4-0.2,0.7-0.6,1-1C71.4,50.3,71.6,49.8,71.6,49.2z M79,40.9v13.2h-2.5V40.9H79z M85.2,54.3
		c-0.8,0-1.5-0.1-2.2-0.4c-0.6-0.3-1.2-0.7-1.5-1.2c-0.4-0.5-0.6-1-0.6-1.7h2.5c0,0.4,0.2,0.7,0.6,0.9c0.3,0.2,0.7,0.4,1.2,0.4
		c0.5,0,0.8-0.1,1.1-0.3c0.3-0.2,0.4-0.4,0.4-0.7c0-0.3-0.2-0.6-0.5-0.7c-0.3-0.2-0.8-0.3-1.5-0.5c-0.7-0.2-1.3-0.4-1.8-0.6
		c-0.5-0.2-0.9-0.5-1.2-0.9c-0.3-0.4-0.5-0.9-0.5-1.6c0-0.5,0.2-1,0.5-1.5c0.3-0.5,0.8-0.8,1.4-1.1c0.6-0.3,1.3-0.4,2.1-0.4
		c1.2,0,2.1,0.3,2.8,0.9c0.7,0.6,1.1,1.4,1.2,2.4h-2.4c0-0.4-0.2-0.7-0.5-0.9c-0.3-0.2-0.7-0.4-1.2-0.4c-0.5,0-0.8,0.1-1,0.2
		c-0.2,0.2-0.4,0.4-0.4,0.7c0,0.3,0.2,0.6,0.5,0.8c0.3,0.2,0.8,0.3,1.5,0.5c0.7,0.2,1.3,0.4,1.8,0.6c0.5,0.2,0.9,0.5,1.2,0.9
		c0.3,0.4,0.5,0.9,0.5,1.6c0,0.6-0.2,1.1-0.5,1.5c-0.3,0.5-0.8,0.8-1.4,1.1C86.7,54.1,86,54.3,85.2,54.3z"/>
</g>
</svg>
