<svg width="56" height="42" viewBox="0 0 56 42" fill="none" xmlns="http://www.w3.org/2000/svg">
<path d="M30.134 7.41189L33.53 4.01489C33.9123 3.63878 34.4278 3.42898 34.9641 3.43117C35.5004 3.43336 36.0141 3.64738 36.3933 4.0266C36.7725 4.40583 36.9865 4.91954 36.9887 5.45584C36.9909 5.99214 36.7811 6.50758 36.405 6.88989L33.008 10.2859L34.846 19.4309C35.081 20.6009 32.812 22.2309 32.208 20.6809L29.518 13.7769L26.025 17.2699C26.195 19.3109 26.232 19.9899 24.801 21.4199L22.626 17.7939L19 15.6189C20.43 14.1879 21.109 14.2239 23.15 14.3949L26.643 10.9029L19.739 8.21189C18.189 7.60789 19.819 5.33789 20.989 5.57389L30.134 7.41189Z" stroke="#747474" stroke-width="1.5" stroke-linecap="round" stroke-linejoin="round"/>
<path d="M6.00597 28.7419V29.9849H3.95997V36.4199H2.41997V29.9849H0.373973V28.7419H6.00597ZM12.7946 33.2409C12.7946 33.4609 12.7799 33.6589 12.7506 33.8349H8.29561C8.33227 34.2749 8.48627 34.6196 8.75761 34.8689C9.02894 35.1183 9.36261 35.2429 9.75861 35.2429C10.3306 35.2429 10.7376 34.9973 10.9796 34.5059H12.6406C12.4646 35.0926 12.1273 35.5766 11.6286 35.9579C11.1299 36.3319 10.5176 36.5189 9.79161 36.5189C9.20494 36.5189 8.67694 36.3906 8.20761 36.1339C7.74561 35.8699 7.38261 35.4996 7.11861 35.0229C6.86194 34.5463 6.73361 33.9963 6.73361 33.3729C6.73361 32.7423 6.86194 32.1886 7.11861 31.7119C7.37527 31.2353 7.73461 30.8686 8.19661 30.6119C8.65861 30.3553 9.19027 30.2269 9.79161 30.2269C10.3709 30.2269 10.8879 30.3516 11.3426 30.6009C11.8046 30.8503 12.1603 31.2059 12.4096 31.6679C12.6663 32.1226 12.7946 32.6469 12.7946 33.2409ZM11.1996 32.8009C11.1923 32.4049 11.0493 32.0896 10.7706 31.8549C10.4919 31.6129 10.1509 31.4919 9.74761 31.4919C9.36627 31.4919 9.04361 31.6093 8.77961 31.8439C8.52294 32.0713 8.36527 32.3903 8.30661 32.8009H11.1996ZM15.4587 31.2719C15.6567 30.9493 15.9133 30.6963 16.2287 30.5129C16.5513 30.3296 16.918 30.2379 17.3287 30.2379V31.8549H16.9217C16.4377 31.8549 16.071 31.9686 15.8217 32.1959C15.5797 32.4233 15.4587 32.8193 15.4587 33.3839V36.4199H13.9187V30.3259H15.4587V31.2719ZM25.9339 30.2379C26.6819 30.2379 27.2833 30.4689 27.7379 30.9309C28.1999 31.3856 28.4309 32.0236 28.4309 32.8449V36.4199H26.8909V33.0539C26.8909 32.5773 26.7699 32.2143 26.5279 31.9649C26.2859 31.7083 25.9559 31.5799 25.5379 31.5799C25.1199 31.5799 24.7863 31.7083 24.5369 31.9649C24.2949 32.2143 24.1739 32.5773 24.1739 33.0539V36.4199H22.6339V33.0539C22.6339 32.5773 22.5129 32.2143 22.2709 31.9649C22.0289 31.7083 21.6989 31.5799 21.2809 31.5799C20.8556 31.5799 20.5183 31.7083 20.2689 31.9649C20.0269 32.2143 19.9059 32.5773 19.9059 33.0539V36.4199H18.3659V30.3259H19.9059V31.0629C20.1039 30.8063 20.3569 30.6046 20.6649 30.4579C20.9803 30.3113 21.3249 30.2379 21.6989 30.2379C22.1756 30.2379 22.6009 30.3406 22.9749 30.5459C23.3489 30.7439 23.6386 31.0299 23.8439 31.4039C24.0419 31.0519 24.3279 30.7696 24.7019 30.5569C25.0833 30.3443 25.4939 30.2379 25.9339 30.2379ZM30.6733 29.5999C30.402 29.5999 30.1746 29.5156 29.9913 29.3469C29.8153 29.1709 29.7273 28.9546 29.7273 28.6979C29.7273 28.4413 29.8153 28.2286 29.9913 28.0599C30.1746 27.8839 30.402 27.7959 30.6733 27.7959C30.9446 27.7959 31.1683 27.8839 31.3443 28.0599C31.5276 28.2286 31.6193 28.4413 31.6193 28.6979C31.6193 28.9546 31.5276 29.1709 31.3443 29.3469C31.1683 29.5156 30.9446 29.5999 30.6733 29.5999ZM31.4323 30.3259V36.4199H29.8923V30.3259H31.4323ZM36.3308 30.2379C37.0568 30.2379 37.6435 30.4689 38.0908 30.9309C38.5382 31.3856 38.7618 32.0236 38.7618 32.8449V36.4199H37.2218V33.0539C37.2218 32.5699 37.1008 32.1996 36.8588 31.9429C36.6168 31.6789 36.2868 31.5469 35.8688 31.5469C35.4435 31.5469 35.1062 31.6789 34.8568 31.9429C34.6148 32.1996 34.4938 32.5699 34.4938 33.0539V36.4199H32.9538V30.3259H34.4938V31.0849C34.6992 30.8209 34.9595 30.6156 35.2748 30.4689C35.5975 30.3149 35.9495 30.2379 36.3308 30.2379ZM39.8303 33.3509C39.8303 32.7349 39.9513 32.1886 40.1933 31.7119C40.4426 31.2353 40.7763 30.8686 41.1943 30.6119C41.6196 30.3553 42.0926 30.2269 42.6133 30.2269C43.068 30.2269 43.464 30.3186 43.8013 30.5019C44.146 30.6853 44.421 30.9163 44.6263 31.1949V30.3259H46.1773V36.4199H44.6263V35.5289C44.4283 35.8149 44.1533 36.0533 43.8013 36.2439C43.4566 36.4273 43.057 36.5189 42.6023 36.5189C42.089 36.5189 41.6196 36.3869 41.1943 36.1229C40.7763 35.8589 40.4426 35.4886 40.1933 35.0119C39.9513 34.5279 39.8303 33.9743 39.8303 33.3509ZM44.6263 33.3729C44.6263 32.9989 44.553 32.6799 44.4063 32.4159C44.2596 32.1446 44.0616 31.9393 43.8123 31.7999C43.563 31.6533 43.2953 31.5799 43.0093 31.5799C42.7233 31.5799 42.4593 31.6496 42.2173 31.7889C41.9753 31.9283 41.7773 32.1336 41.6233 32.4049C41.4766 32.6689 41.4033 32.9843 41.4033 33.3509C41.4033 33.7176 41.4766 34.0403 41.6233 34.3189C41.7773 34.5903 41.9753 34.7993 42.2173 34.9459C42.4666 35.0926 42.7306 35.1659 43.0093 35.1659C43.2953 35.1659 43.563 35.0963 43.8123 34.9569C44.0616 34.8103 44.2596 34.6049 44.4063 34.3409C44.553 34.0696 44.6263 33.7469 44.6263 33.3729ZM49.2214 28.2799V36.4199H47.6814V28.2799H49.2214ZM53.0749 36.5189C52.5762 36.5189 52.1289 36.4309 51.7329 36.2549C51.3369 36.0716 51.0216 35.8259 50.7869 35.5179C50.5596 35.2099 50.4349 34.8689 50.4129 34.4949H51.9639C51.9932 34.7296 52.1069 34.9239 52.3049 35.0779C52.5102 35.2319 52.7632 35.3089 53.0639 35.3089C53.3572 35.3089 53.5846 35.2503 53.7459 35.1329C53.9146 35.0156 53.9989 34.8653 53.9989 34.6819C53.9989 34.4839 53.8962 34.3373 53.6909 34.2419C53.4929 34.1393 53.1739 34.0293 52.7339 33.9119C52.2792 33.8019 51.9052 33.6883 51.6119 33.5709C51.3259 33.4536 51.0766 33.2739 50.8639 33.0319C50.6586 32.7899 50.5559 32.4636 50.5559 32.0529C50.5559 31.7156 50.6512 31.4076 50.8419 31.1289C51.0399 30.8503 51.3186 30.6303 51.6779 30.4689C52.0446 30.3076 52.4736 30.2269 52.9649 30.2269C53.6909 30.2269 54.2702 30.4103 54.7029 30.7769C55.1356 31.1363 55.3739 31.6239 55.4179 32.2399H53.9439C53.9219 31.9979 53.8192 31.8073 53.6359 31.6679C53.4599 31.5213 53.2216 31.4479 52.9209 31.4479C52.6422 31.4479 52.4259 31.4993 52.2719 31.6019C52.1252 31.7046 52.0519 31.8476 52.0519 32.0309C52.0519 32.2363 52.1546 32.3939 52.3599 32.5039C52.5652 32.6066 52.8842 32.7129 53.3169 32.8229C53.7569 32.9329 54.1199 33.0466 54.4059 33.1639C54.6919 33.2813 54.9376 33.4646 55.1429 33.7139C55.3556 33.9559 55.4656 34.2786 55.4729 34.6819C55.4729 35.0339 55.3739 35.3493 55.1759 35.6279C54.9852 35.9066 54.7066 36.1266 54.3399 36.2879C53.9806 36.4419 53.5589 36.5189 53.0749 36.5189Z" fill="#747474"/>
</svg>
