<svg width="19" height="30" viewBox="0 0 19 30" fill="none" xmlns="http://www.w3.org/2000/svg">
<path d="M12.1225 6.32861C13.6235 6.32861 14.8413 5.11084 14.8413 3.60986C14.8413 2.10889 13.6235 0.891113 12.1225 0.891113C10.6216 0.891113 9.4038 2.10889 9.4038 3.60986C9.4038 5.11084 10.6216 6.32861 12.1225 6.32861ZM17.4751 14.7737L16.1554 14.1054L15.6059 12.4401C14.7733 9.91396 12.4511 8.14678 9.81727 8.14111C7.77821 8.13545 6.65106 8.71318 4.5327 9.56846C3.30927 10.0612 2.30673 10.9958 1.71766 12.1853L1.33817 12.9556C0.896375 13.8505 1.25321 14.938 2.14247 15.3854C3.02606 15.8329 4.10223 15.4704 4.5497 14.5755L4.92919 13.8052C5.12743 13.4087 5.45594 13.0972 5.86376 12.9329L7.38173 12.3212L6.52079 15.7593C6.22626 16.9374 6.54344 18.1892 7.36473 19.0897L10.7575 22.794C11.1653 23.2415 11.4542 23.7796 11.6015 24.363L12.638 28.5147C12.8815 29.4833 13.8671 30.078 14.8356 29.8345C15.8042 29.5909 16.3989 28.6054 16.1554 27.6368L14.8979 22.5958C14.7507 22.0124 14.4618 21.4687 14.054 21.0269L11.4768 18.2118L12.4511 14.3206L12.7626 15.2552C13.0628 16.1671 13.7085 16.9204 14.5581 17.3509L15.8778 18.0192C16.7614 18.4667 17.8376 18.1042 18.285 17.2093C18.7212 16.32 18.3643 15.2212 17.4751 14.7737ZM4.51005 22.7431C4.3288 23.2019 4.05692 23.6153 3.70575 23.9608L0.873718 26.7985C0.16571 27.5065 0.16571 28.6563 0.873718 29.3644C1.58173 30.0724 2.72587 30.0724 3.43387 29.3644L6.79833 25.9999C7.14384 25.6544 7.41571 25.2409 7.60262 24.7821L8.36727 22.8677C5.23505 19.4522 6.17528 20.5001 5.68251 19.8261L4.51005 22.7431Z" fill="white"/>
</svg>
