<svg width="29" height="30" viewBox="0 0 29 30" fill="none" xmlns="http://www.w3.org/2000/svg">
<path d="M10.5687 27.0861V22.8693C10.5687 21.7968 11.4431 20.9253 12.5264 20.9181H16.4948C17.5833 20.9181 18.4657 21.7917 18.4657 22.8693V22.8693V27.0992C18.4655 28.0098 19.1996 28.754 20.1192 28.7754H22.7648C25.4021 28.7754 27.54 26.6588 27.54 24.0479V24.0479V12.0524C27.526 11.0253 27.0388 10.0607 26.2173 9.43331L17.1694 2.21768C15.5843 0.961294 13.3311 0.961294 11.746 2.21768L2.73782 9.44641C1.91314 10.0713 1.4252 11.0374 1.41504 12.0655V24.0479C1.41504 26.6588 3.55299 28.7754 6.19029 28.7754H8.83586C9.77828 28.7754 10.5423 28.0191 10.5423 27.0861V27.0861" stroke="#333333" stroke-width="1.5" stroke-linecap="round" stroke-linejoin="round"/>
</svg>
