<svg width="51" height="42" viewBox="0 0 51 42" fill="none" xmlns="http://www.w3.org/2000/svg">
<path d="M1.75 41.0001H49.25M12.105 30.0751L6.5 29.1251L1.75 19.6251L4.3625 18.3188C5.0255 17.9847 5.75758 17.8107 6.5 17.8107C7.24242 17.8107 7.9745 17.9847 8.6375 18.3188L9.04125 18.5563C9.70425 18.8904 10.4363 19.0644 11.1787 19.0644C11.9212 19.0644 12.6532 18.8904 13.3162 18.5563L16 17.2501L8.875 3.00005L11.0125 1.9313C11.8026 1.54262 12.6852 1.38121 13.5617 1.46508C14.4382 1.54896 15.2742 1.87483 15.9762 2.4063L25.5238 9.5313C26.2282 10.0674 27.0685 10.3959 27.9498 10.4798C28.831 10.5638 29.7182 10.3998 30.5112 10.0063L40.4625 5.1138C41.7335 4.47052 43.1993 4.32648 44.5713 4.71005L46.875 5.37505C47.351 5.50724 47.7915 5.74382 48.1646 6.06761C48.5377 6.3914 48.834 6.79425 49.0319 7.24689C49.2298 7.69953 49.3243 8.19057 49.3086 8.68432C49.293 9.17807 49.1675 9.66213 48.9413 10.1013L48.0387 11.9063C47.4925 12.9988 46.6138 13.9013 45.4975 14.4713L15.0025 29.6001C14.1058 30.0442 13.0918 30.1938 12.105 30.0276V30.0751Z" stroke="#747474" stroke-width="2" stroke-linecap="round" stroke-linejoin="round"/>
</svg>
