<svg width="57" height="58" viewBox="0 0 57 58" fill="none" xmlns="http://www.w3.org/2000/svg">
<path d="M7.125 50.625H49.875M35.9979 28.7987L47.4691 31.8744C48.0802 32.028 48.6545 32.3017 49.1588 32.6794C49.663 33.0572 50.0871 33.5315 50.4062 34.0747C50.7254 34.6179 50.9333 35.2192 51.0179 35.8436C51.1024 36.4679 51.0619 37.1028 50.8987 37.7114C50.7355 38.3199 50.4529 38.8899 50.0672 39.3882C49.6816 39.8864 49.2007 40.303 48.6526 40.6136C48.1044 40.9242 47.4999 41.1227 46.8744 41.1974C46.2488 41.2722 45.6145 41.2217 45.0086 41.049L10.5972 31.8292L7.40288 16.2207L14.2856 18.0637L17.6439 23.8825L24.5266 25.7255L24.2416 8.43787L31.1244 10.2832L35.9979 28.7987Z" stroke="#747474" stroke-width="2" stroke-linecap="round" stroke-linejoin="round"/>
</svg>
